PathFileType	4	(X/Y/Z)	./resultDataOpenSim/trcMotMarkerGrf/sub09/qtm-13-06.trc
DataRate	CameraRate	NumFrames	NumMarkers	Units	OrigDataRate	OrigDataStartFrame	OrigNumFrames
250.000000	250.000000	10	24	m	250.000000	419	478
Frame#	Time	L.Toe.Tip			R.Toe.Tip			L.Ankle.Lat			R.Ankle.Lat			L.Ankle.Med			R.Ankle.Med			L.Heel			R.Heel			L.Knee.Lat			R.Knee.Lat			L.Knee.Med			R.Knee.Med			L.Thigh.Upper			R.Thigh.Upper			L.ASIS			R.ASIS			V.Sacral			L.Acromium			R.Acromium			C7			L.Elbow			R.Elbow			L.Wrist.Lat			R.Wrist.Lat
		X1	Y1	Z1	X2	Y2	Z2	X3	Y3	Z3	X4	Y4	Z4	X5	Y5	Z5	X6	Y6	Z6	X7	Y7	Z7	X8	Y8	Z8	X9	Y9	Z9	X10	Y10	Z10	X11	Y11	Z11	X12	Y12	Z12	X13	Y13	Z13	X14	Y14	Z14	X15	Y15	Z15	X16	Y16	Z16	X17	Y17	Z17	X18	Y18	Z18	X19	Y19	Z19	X20	Y20	Z20	X21	Y21	Z21	X22	Y22	Z22	X23	Y23	Z23	X24	Y24	Z24

419	1.672	1.83412	0.10477744	-0.084523032	1.1201167	0.041019792	0.06275567	1.6831393	0.078789011	-0.1088682	0.99863741	0.10535612	0.10080759	1.7059678	0.10669032	-0.016448802	1.017142	0.13758557	0.0091742299	1.6341278	0.019797001	-0.05561258	0.91960154	0.11256465	0.04935113	1.5543589	0.47892704	-0.14177273	1.268003	0.47837748	0.15760454	1.562109	0.47142757	-0.014700193	1.2528546	0.47163431	0.033195668	1.3804822	0.85441759	-0.17207065	1.3322322	0.87780656	0.19827788	1.4451392	0.94921293	-0.10847817	1.4370834	0.96024746	0.13371171	1.2712376	0.99967282	-0.0037182486	1.4066085	1.4026306	-0.17363456	1.403259	1.4204681	0.15796904	1.3371959	1.4596643	-0.0074583423	1.2456364	1.0717345	-0.21627966	1.2861966	1.0720033	0.25792415	1.337538	0.83439348	-0.28341582	1.4863949	0.87818084	0.2524318
420	1.676	1.8380885	0.097137855	-0.084662	1.1204047	0.041152462	0.062868056	1.6857977	0.077376039	-0.10845065	0.99999297	0.10724693	0.10122009	1.7096071	0.10504638	-0.016106352	1.019053	0.13915312	0.0095794747	1.63487	0.020741398	-0.054924154	0.92119757	0.11546241	0.049679911	1.5610858	0.47845981	-0.14268432	1.2742324	0.47714062	0.15750057	1.5702712	0.47137306	-0.015387944	1.2590114	0.47008372	0.03315861	1.3863934	0.85367984	-0.17318057	1.3386216	0.87630642	0.19748551	1.4514162	0.94819988	-0.10914234	1.4438203	0.9587082	0.13317863	1.2775473	0.99847235	-0.0043115458	1.4119929	1.4014777	-0.1742811	1.408639	1.4191236	0.1574078	1.3424498	1.4584076	-0.0080716836	1.2516052	1.0703109	-0.21705271	1.2916813	1.0706197	0.25711717	1.3438843	0.83312588	-0.28423328	1.491607	0.87654094	0.25231646
421	1.68	1.8418346	0.089906926	-0.08454727	1.1207162	0.041268428	0.063060851	1.6882014	0.07637356	-0.10822134	1.000872	0.10908885	0.10163816	1.7130582	0.10364176	-0.015903464	1.0210764	0.14080283	0.010022593	1.63559	0.021953968	-0.054376926	0.92292027	0.1184931	0.05003486	1.5682649	0.47821203	-0.14352665	1.2805124	0.47590511	0.15741102	1.5782998	0.47139266	-0.016104957	1.2652983	0.46842234	0.033007761	1.3921716	0.85301276	-0.1743271	1.3450899	0.87479196	0.19669314	1.457565	0.94732935	-0.10978939	1.4505659	0.95715913	0.13260902	1.2837585	0.99743904	-0.004820705	1.4173658	1.4003521	-0.17494755	1.4140307	1.4177987	0.15685999	1.3477281	1.457236	-0.0086870515	1.2576117	1.0688788	-0.21781626	1.2971903	1.0692229	0.25629951	1.3502812	0.83185934	-0.28503719	1.4967743	0.87488065	0.25222162
422	1.684	1.8451887	0.083686965	-0.084155178	1.1210538	0.041361821	0.063325747	1.6904572	0.075686468	-0.10823597	1.0012889	0.11088772	0.10207655	1.7162055	0.10243169	-0.015873848	1.0231973	0.14254039	0.010510888	1.6364062	0.023168011	-0.054114445	0.92477726	0.12166461	0.050450773	1.5761953	0.47831568	-0.14427749	1.2867022	0.47465909	0.15734041	1.5862151	0.47164366	-0.01683063	1.2717895	0.46664177	0.032701487	1.3978678	0.85241777	-0.1754807	1.3516464	0.87326169	0.19591915	1.4636065	0.94660022	-0.11043873	1.4573127	0.95561494	0.13200681	1.2899208	0.99657442	-0.0052202915	1.4227235	1.399263	-0.17563913	1.4194234	1.4165045	0.156324	1.3530573	1.4561868	-0.0093004859	1.2636321	1.0674173	-0.21860551	1.3027153	1.0678292	0.2554539	1.3567355	0.83059901	-0.2858232	1.5019083	0.87320215	0.25214355
423	1.688	1.8480724	0.078616308	-0.083497491	1.1214233	0.04145085	0.063619453	1.6926743	0.075205862	-0.10845961	1.0016713	0.11275567	0.10256146	1.7189994	0.10143144	-0.015990272	1.0254065	0.14437188	0.011050478	1.6373297	0.024222391	-0.054159499	0.92678578	0.12497824	0.050945579	1.5847101	0.47891744	-0.14500591	1.2928239	0.47339616	0.15726628	1.5940704	0.47232095	-0.017581126	1.2784981	0.46480343	0.032309217	1.4035468	0.85192341	-0.17661342	1.3583024	0.87170677	0.1951783	1.4695532	0.94600588	-0.11109817	1.4640602	0.9540993	0.1313776	1.2960627	0.9958534	-0.005506123	1.4280629	1.3982214	-0.17635673	1.4248158	1.4152512	0.15579317	1.358448	1.4552793	-0.0099150513	1.2696176	1.0659021	-0.21949734	1.3082367	1.0664502	0.25455504	1.3632553	0.82935122	-0.28659124	1.5070068	0.87150859	0.25207902
424	1.692	1.850525	0.074483919	-0.082583299	1.1218415	0.041574139	0.063900805	1.6948929	0.074875147	-0.1088077	1.0026079	0.11485167	0.10310142	1.7214775	0.1006643	-0.016189196	1.0277296	0.14628732	0.011634226	1.6383179	0.025097657	-0.054465388	0.92896836	0.1284355	0.051510251	1.5935424	0.48011077	-0.14576153	1.2990076	0.47212697	0.15716082	1.6019425	0.47356163	-0.018401909	1.2853425	0.46302504	0.031954756	1.4092557	0.8515871	-0.17768606	1.3650194	0.87011021	0.19446638	1.4754121	0.94555325	-0.11176712	1.4707921	0.95262902	0.13071865	1.3021712	0.99523784	-0.005683932	1.4333862	1.3972397	-0.17709953	1.4302103	1.4140553	0.15526025	1.3638914	1.454492	-0.010536616	1.2755341	1.0643356	-0.22054634	1.3137536	1.0650983	0.25359615	1.3698399	0.82812646	-0.28734529	1.5120567	0.86980531	0.25202788
425	1.696	1.8526568	0.070939839	-0.081448587	1.122327	0.041760895	0.064182748	1.6970744	0.074683906	-0.10920454	1.0043101	0.11724491	0.10363894	1.7236677	0.10008636	-0.016407	1.0302182	0.1482692	0.012239264	1.639318	0.025878602	-0.055013788	0.93134867	0.13204994	0.05211257	1.6026473	0.48185322	-0.14648492	1.3053851	0.47087459	0.1570113	1.60987	0.47535089	-0.01934162	1.2922402	0.46138606	0.031693591	1.415006	0.85147392	-0.17865166	1.3717356	0.86847231	0.19377196	1.4812074	0.94526463	-0.11244747	1.4774759	0.95120863	0.13002297	1.308218	0.99468558	-0.0057646062	1.4386978	1.3963307	-0.17786091	1.4356172	1.4129422	0.15472052	1.3693664	1.4537752	-0.011179675	1.2814373	1.0627761	-0.22169078	1.3193032	1.0637913	0.2525974	1.3764793	0.82694032	-0.28808844	1.5170468	0.86810417	0.25199072
426	1.7	1.8545865	0.067650445	-0.080172883	1.1228798	0.042014187	0.064486322	1.6991672	0.074616355	-0.10961904	1.0065705	0.11989512	0.10407868	1.7255626	0.099602086	-0.016619166	1.0329118	0.1503168	0.012848222	1.6402911	0.026675151	-0.055823072	0.93395037	0.13585	0.05271342	1.6120459	0.48393469	-0.14704922	1.3120403	0.46965858	0.15682095	1.6178202	0.47752136	-0.020414335	1.2991774	0.4598785	0.031517333	1.4207799	0.85162146	-0.17949109	1.3784468	0.86683031	0.1930972	1.4869878	0.94516119	-0.11314536	1.4840865	0.94984318	0.12929083	1.3142187	0.99415359	-0.0057325518	1.4440026	1.3955074	-0.17862507	1.4410508	1.4119366	0.15417262	1.3748431	1.4530878	-0.011859236	1.2874434	1.0613078	-0.22278568	1.3249135	1.0625553	0.25157206	1.3831635	0.82580908	-0.28881595	1.5219729	0.86642433	0.25196824
427	1.704	1.856399	0.064385096	-0.078820723	1.1234714	0.042318567	0.064749118	1.7011775	0.074613802	-0.11006084	1.0091091	0.1227272	0.10440955	1.7272215	0.099139043	-0.016851399	1.0358273	0.15244655	0.013467389	1.6412389	0.027554879	-0.056885044	0.93679155	0.13986595	0.053286065	1.6215145	0.48604365	-0.1473841	1.3190049	0.46847952	0.15660199	1.6257868	0.4798681	-0.021570449	1.3061877	0.45844036	0.031451676	1.4265601	0.85202165	-0.18023665	1.385209	0.86522323	0.19245529	1.4928118	0.94524673	-0.11386095	1.4906246	0.94854419	0.12852813	1.3202369	0.99360464	-0.00554634	1.4493043	1.3947815	-0.17937351	1.4465092	1.4110544	0.15361462	1.3802941	1.4524187	-0.012566859	1.2936111	1.0599705	-0.22374198	1.3305371	1.0614278	0.25050111	1.3898887	0.82474485	-0.2895175	1.5268336	0.86478383	0.25195924
428	1.708	1.8581427	0.06104472	-0.077394478	1.1240578	0.042656247	0.064842359	1.7031788	0.074586598	-0.11054183	1.0117728	0.12568816	0.10474301	1.7287922	0.098662409	-0.017136876	1.038971	0.15467486	0.014115642	1.6422107	0.028547841	-0.058182911	0.9398791	0.14412061	0.053820635	1.6306548	0.48790375	-0.147549	1.3262667	0.46732125	0.15637839	1.6339212	0.48228466	-0.022700282	1.3133091	0.45700728	0.031584212	1.4323635	0.85263676	-0.18095107	1.392059	0.86364755	0.19185411	1.4987255	0.94550833	-0.1145809	1.4971097	0.94731879	0.12773623	1.3263082	0.99301405	-0.0052111338	1.454601	1.3941549	-0.18008996	1.4519762	1.4103024	0.15304109	1.3857141	1.4517755	-0.013270194	1.2999153	1.0587497	-0.22456743	1.3360522	1.060454	0.24935515	1.3966607	0.82375544	-0.29018853	1.5316271	0.86319132	0.25195819
